<svg xmlns="http://www.w3.org/2000/svg" viewBox="0 0 900 520" width="900" height="520">
  <defs>
    <!-- Dot grid pattern -->
    <pattern id="dotGrid" x="0" y="0" width="20" height="20" patternUnits="userSpaceOnUse">
      <circle cx="10" cy="10" r="0.6" fill="#E6EDF3" opacity="0.04"/>
    </pattern>

    <!-- Glow filters -->
    <filter id="glowRed" x="-50%" y="-50%" width="200%" height="200%">
      <feGaussianBlur in="SourceGraphic" stdDeviation="3" result="blur"/>
      <feColorMatrix in="blur" type="matrix" values="1 0 0 0 0  0 0 0 0 0  0 0 0 0 0  0 0 0 0.6 0" result="redGlow"/>
      <feMerge><feMergeNode in="redGlow"/><feMergeNode in="SourceGraphic"/></feMerge>
    </filter>
    <filter id="glowCyan" x="-50%" y="-50%" width="200%" height="200%">
      <feGaussianBlur in="SourceGraphic" stdDeviation="4" result="blur"/>
      <feColorMatrix in="blur" type="matrix" values="0 0 0 0 0.31  0 0 0 0 0.78  0 0 0 0 1  0 0 0 0.7 0" result="cyanGlow"/>
      <feMerge><feMergeNode in="cyanGlow"/><feMergeNode in="SourceGraphic"/></feMerge>
    </filter>
    <filter id="glowGreen" x="-50%" y="-50%" width="200%" height="200%">
      <feGaussianBlur in="SourceGraphic" stdDeviation="3" result="blur"/>
      <feColorMatrix in="blur" type="matrix" values="0 0 0 0 0.31  0 0 0 0 0.78  0 0 0 0 0.47  0 0 0 0.5 0" result="greenGlow"/>
      <feMerge><feMergeNode in="greenGlow"/><feMergeNode in="SourceGraphic"/></feMerge>
    </filter>
    <filter id="glowBlue" x="-50%" y="-50%" width="200%" height="200%">
      <feGaussianBlur in="SourceGraphic" stdDeviation="3" result="blur"/>
      <feColorMatrix in="blur" type="matrix" values="0 0 0 0 0.51  0 0 0 0 0.67  0 0 0 0 1  0 0 0 0.5 0" result="blueGlow"/>
      <feMerge><feMergeNode in="blueGlow"/><feMergeNode in="SourceGraphic"/></feMerge>
    </filter>

    <!-- Card shadow filters -->
    <filter id="cardShadowRed" x="-5%" y="-5%" width="110%" height="115%">
      <feGaussianBlur in="SourceAlpha" stdDeviation="6" result="shadow"/>
      <feColorMatrix in="shadow" type="matrix" values="0 0 0 0 1  0 0 0 0 0.27  0 0 0 0 0.27  0 0 0 0.12 0"/>
      <feMerge><feMergeNode/><feMergeNode in="SourceGraphic"/></feMerge>
    </filter>
    <filter id="cardShadowGreen" x="-5%" y="-5%" width="110%" height="115%">
      <feGaussianBlur in="SourceAlpha" stdDeviation="6" result="shadow"/>
      <feColorMatrix in="shadow" type="matrix" values="0 0 0 0 0.31  0 0 0 0 0.78  0 0 0 0 0.47  0 0 0 0.12 0"/>
      <feMerge><feMergeNode/><feMergeNode in="SourceGraphic"/></feMerge>
    </filter>
    <filter id="cardShadowCyan" x="-5%" y="-5%" width="110%" height="115%">
      <feGaussianBlur in="SourceAlpha" stdDeviation="6" result="shadow"/>
      <feColorMatrix in="shadow" type="matrix" values="0 0 0 0 0.31  0 0 0 0 0.78  0 0 0 0 1  0 0 0 0.12 0"/>
      <feMerge><feMergeNode/><feMergeNode in="SourceGraphic"/></feMerge>
    </filter>
    <filter id="cardShadowBlue" x="-5%" y="-5%" width="110%" height="115%">
      <feGaussianBlur in="SourceAlpha" stdDeviation="6" result="shadow"/>
      <feColorMatrix in="shadow" type="matrix" values="0 0 0 0 0.51  0 0 0 0 0.67  0 0 0 0 1  0 0 0 0.12 0"/>
      <feMerge><feMergeNode/><feMergeNode in="SourceGraphic"/></feMerge>
    </filter>

    <!-- Heatmap legend gradient -->
    <linearGradient id="heatGrad" x1="0%" y1="0%" x2="100%" y2="0%">
      <stop offset="0%" stop-color="#30363D"/>
      <stop offset="33%" stop-color="#CCAA33"/>
      <stop offset="66%" stop-color="#CC7722"/>
      <stop offset="100%" stop-color="#CC4444"/>
    </linearGradient>

    <!-- Cyan progress gradient -->
    <linearGradient id="cyanFill" x1="0%" y1="0%" x2="100%" y2="0%">
      <stop offset="0%" stop-color="#44AACC" stop-opacity="0.4"/>
      <stop offset="100%" stop-color="#44AACC" stop-opacity="0.15"/>
    </linearGradient>
  </defs>

  <!-- Background -->
  <rect width="900" height="520" fill="#0D1117" rx="0"/>
  <rect width="900" height="520" fill="url(#dotGrid)"/>

  <!-- Title -->
  <text x="450" y="34" text-anchor="middle" font-family="'SF Pro Display','Inter','Segoe UI',system-ui,sans-serif" font-size="22" font-weight="700" fill="#E6EDF3" letter-spacing="2">BUILT-IN DEVTOOLS</text>
  <text x="450" y="54" text-anchor="middle" font-family="'SF Pro Text','Inter','Segoe UI',system-ui,sans-serif" font-size="11.5" fill="#8B949E">One line to enable. Four tools no other TUI framework has.</text>

  <!-- ============================================================ -->
  <!-- CARD 1: RENDER HEATMAP (top-left) -->
  <!-- ============================================================ -->
  <g transform="translate(30, 72)" filter="url(#cardShadowRed)">
    <rect width="412" height="195" rx="8" fill="#161B22" stroke="#30363D" stroke-width="1"/>
    <!-- Title -->
    <text x="18" y="28" font-family="'SF Mono','JetBrains Mono',monospace" font-size="11" font-weight="700" fill="#CC4444" letter-spacing="1.5">RENDER HEATMAP</text>

    <!-- Heatmap grid: 10 cols x 4 rows, cell size 28x18, gap 3 -->
    <g transform="translate(18, 42)">
      <!-- Row 0 -->
      <rect x="0"   y="0" width="28" height="18" rx="2" fill="#30363D" opacity="0.3"/>
      <rect x="31"  y="0" width="28" height="18" rx="2" fill="#30363D" opacity="0.3"/>
      <rect x="62"  y="0" width="28" height="18" rx="2" fill="#CC4444" filter="url(#glowRed)" opacity="0.9"/>
      <rect x="93"  y="0" width="28" height="18" rx="2" fill="#CC7722" opacity="0.8"/>
      <rect x="124" y="0" width="28" height="18" rx="2" fill="#30363D" opacity="0.3"/>
      <rect x="155" y="0" width="28" height="18" rx="2" fill="#30363D" opacity="0.3"/>
      <rect x="186" y="0" width="28" height="18" rx="2" fill="#CCAA33" opacity="0.7"/>
      <rect x="217" y="0" width="28" height="18" rx="2" fill="#30363D" opacity="0.3"/>
      <rect x="248" y="0" width="28" height="18" rx="2" fill="#30363D" opacity="0.3"/>
      <rect x="279" y="0" width="28" height="18" rx="2" fill="#CC7722" opacity="0.8"/>
      <!-- Row 1 -->
      <rect x="0"   y="21" width="28" height="18" rx="2" fill="#30363D" opacity="0.3"/>
      <rect x="31"  y="21" width="28" height="18" rx="2" fill="#CC7722" opacity="0.8"/>
      <rect x="62"  y="21" width="28" height="18" rx="2" fill="#CC4444" filter="url(#glowRed)" opacity="0.9"/>
      <rect x="93"  y="21" width="28" height="18" rx="2" fill="#CC4444" filter="url(#glowRed)" opacity="0.9"/>
      <rect x="124" y="21" width="28" height="18" rx="2" fill="#30363D" opacity="0.3"/>
      <rect x="155" y="21" width="28" height="18" rx="2" fill="#CCAA33" opacity="0.7"/>
      <rect x="186" y="21" width="28" height="18" rx="2" fill="#30363D" opacity="0.3"/>
      <rect x="217" y="21" width="28" height="18" rx="2" fill="#30363D" opacity="0.3"/>
      <rect x="248" y="21" width="28" height="18" rx="2" fill="#30363D" opacity="0.3"/>
      <rect x="279" y="21" width="28" height="18" rx="2" fill="#30363D" opacity="0.3"/>
      <!-- Row 2 -->
      <rect x="0"   y="42" width="28" height="18" rx="2" fill="#30363D" opacity="0.3"/>
      <rect x="31"  y="42" width="28" height="18" rx="2" fill="#30363D" opacity="0.3"/>
      <rect x="62"  y="42" width="28" height="18" rx="2" fill="#CC7722" opacity="0.8"/>
      <rect x="93"  y="42" width="28" height="18" rx="2" fill="#30363D" opacity="0.3"/>
      <rect x="124" y="42" width="28" height="18" rx="2" fill="#30363D" opacity="0.3"/>
      <rect x="155" y="42" width="28" height="18" rx="2" fill="#30363D" opacity="0.3"/>
      <rect x="186" y="42" width="28" height="18" rx="2" fill="#30363D" opacity="0.3"/>
      <rect x="217" y="42" width="28" height="18" rx="2" fill="#CC4444" filter="url(#glowRed)" opacity="0.9"/>
      <rect x="248" y="42" width="28" height="18" rx="2" fill="#CC7722" opacity="0.8"/>
      <rect x="279" y="42" width="28" height="18" rx="2" fill="#30363D" opacity="0.3"/>
      <!-- Row 3 -->
      <rect x="0"   y="63" width="28" height="18" rx="2" fill="#CCAA33" opacity="0.7"/>
      <rect x="31"  y="63" width="28" height="18" rx="2" fill="#30363D" opacity="0.3"/>
      <rect x="62"  y="63" width="28" height="18" rx="2" fill="#30363D" opacity="0.3"/>
      <rect x="93"  y="63" width="28" height="18" rx="2" fill="#30363D" opacity="0.3"/>
      <rect x="124" y="63" width="28" height="18" rx="2" fill="#CC7722" opacity="0.8"/>
      <rect x="155" y="63" width="28" height="18" rx="2" fill="#30363D" opacity="0.3"/>
      <rect x="186" y="63" width="28" height="18" rx="2" fill="#30363D" opacity="0.3"/>
      <rect x="217" y="63" width="28" height="18" rx="2" fill="#30363D" opacity="0.3"/>
      <rect x="248" y="63" width="28" height="18" rx="2" fill="#30363D" opacity="0.3"/>
      <rect x="279" y="63" width="28" height="18" rx="2" fill="#30363D" opacity="0.3"/>
    </g>

    <!-- Legend bar -->
    <g transform="translate(18, 134)">
      <text x="0" y="9" font-family="'SF Mono','JetBrains Mono',monospace" font-size="8" fill="#8B949E" letter-spacing="0.5">COLD</text>
      <rect x="32" y="1" width="120" height="8" rx="4" fill="url(#heatGrad)"/>
      <text x="157" y="9" font-family="'SF Mono','JetBrains Mono',monospace" font-size="8" fill="#8B949E" letter-spacing="0.5">HOT</text>
    </g>

    <!-- Stats row -->
    <g transform="translate(18, 155)">
      <text x="0" y="9" font-family="'SF Mono','JetBrains Mono',monospace" font-size="8" fill="#CC4444" opacity="0.6">4 hot</text>
      <text x="35" y="9" font-family="'SF Mono','JetBrains Mono',monospace" font-size="8" fill="#CC7722" opacity="0.6">5 warm</text>
      <text x="80" y="9" font-family="'SF Mono','JetBrains Mono',monospace" font-size="8" fill="#CCAA33" opacity="0.6">3 cooling</text>
      <text x="138" y="9" font-family="'SF Mono','JetBrains Mono',monospace" font-size="8" fill="#30363D" opacity="0.8">28 stable</text>
    </g>

    <!-- One-liner -->
    <text x="18" y="182" font-family="'SF Pro Text','Inter',sans-serif" font-size="10" fill="#8B949E" font-style="italic">See where your UI does unnecessary work</text>
  </g>

  <!-- ============================================================ -->
  <!-- CARD 2: ACCESSIBILITY AUDIT (top-right) -->
  <!-- ============================================================ -->
  <g transform="translate(458, 72)" filter="url(#cardShadowGreen)">
    <rect width="412" height="195" rx="8" fill="#161B22" stroke="#30363D" stroke-width="1"/>
    <!-- Title -->
    <text x="18" y="28" font-family="'SF Mono','JetBrains Mono',monospace" font-size="11" font-weight="700" fill="#44A466" letter-spacing="1.5">ACCESSIBILITY AUDIT</text>

    <!-- Contrast check rows -->
    <g transform="translate(18, 48)">
      <!-- Row 1: Header PASS -->
      <text x="0" y="11" font-family="'SF Mono','JetBrains Mono',monospace" font-size="10" fill="#C9D1D9">"Header"</text>
      <rect x="72" y="2" width="14" height="10" rx="1" fill="#E6EDF3"/>
      <text x="94" y="11" font-family="'SF Mono','JetBrains Mono',monospace" font-size="10" fill="#C9D1D9">12.4:1</text>
      <rect x="140" y="1" width="36" height="13" rx="3" fill="#44A466" opacity="0.15"/>
      <text x="148" y="11" font-family="'SF Mono','JetBrains Mono',monospace" font-size="9" font-weight="600" fill="#44A466">PASS</text>

      <!-- Row 2: Subtle FAIL -->
      <text x="0" y="33" font-family="'SF Mono','JetBrains Mono',monospace" font-size="10" fill="#C9D1D9">"Subtle"</text>
      <rect x="72" y="24" width="14" height="10" rx="1" fill="#484F58"/>
      <text x="94" y="33" font-family="'SF Mono','JetBrains Mono',monospace" font-size="10" fill="#C9D1D9"> 3.1:1</text>
      <rect x="140" y="23" width="36" height="13" rx="3" fill="#CC4444" opacity="0.15"/>
      <text x="149" y="33" font-family="'SF Mono','JetBrains Mono',monospace" font-size="9" font-weight="600" fill="#CC4444">FAIL</text>
      <!-- Strikethrough -->
      <line x1="140" y1="29" x2="176" y2="29" stroke="#CC4444" stroke-width="1" opacity="0.5"/>

      <!-- Row 3: Button PASS -->
      <text x="0" y="55" font-family="'SF Mono','JetBrains Mono',monospace" font-size="10" fill="#C9D1D9">"Button"</text>
      <rect x="72" y="46" width="14" height="10" rx="1" fill="#2EA043"/>
      <text x="94" y="55" font-family="'SF Mono','JetBrains Mono',monospace" font-size="10" fill="#C9D1D9"> 8.2:1</text>
      <rect x="140" y="45" width="36" height="13" rx="3" fill="#44A466" opacity="0.15"/>
      <text x="148" y="55" font-family="'SF Mono','JetBrains Mono',monospace" font-size="9" font-weight="600" fill="#44A466">PASS</text>
    </g>

    <!-- Score display -->
    <g transform="translate(260, 48)">
      <text x="52" y="38" text-anchor="middle" font-family="'SF Pro Display','Inter',sans-serif" font-size="42" font-weight="700" fill="#44A466" filter="url(#glowGreen)">94</text>
      <text x="82" y="22" font-family="'SF Pro Display','Inter',sans-serif" font-size="16" font-weight="600" fill="#44A466" opacity="0.7">%</text>
      <text x="52" y="52" text-anchor="middle" font-family="'SF Mono','JetBrains Mono',monospace" font-size="8" fill="#8B949E" letter-spacing="1">WCAG SCORE</text>
      <!-- Progress bar -->
      <rect x="10" y="58" width="100" height="4" rx="2" fill="#1C2128"/>
      <rect x="10" y="58" width="94" height="4" rx="2" fill="#44A466" opacity="0.7"/>
    </g>

    <!-- Stats -->
    <g transform="translate(18, 155)">
      <text x="0" y="9" font-family="'SF Mono','JetBrains Mono',monospace" font-size="8" fill="#44A466" opacity="0.6">2 pass</text>
      <text x="42" y="9" font-family="'SF Mono','JetBrains Mono',monospace" font-size="8" fill="#CC4444" opacity="0.6">1 fail</text>
      <text x="78" y="9" font-family="'SF Mono','JetBrains Mono',monospace" font-size="8" fill="#8B949E" opacity="0.6">AAA level</text>
    </g>

    <!-- One-liner -->
    <text x="18" y="182" font-family="'SF Pro Text','Inter',sans-serif" font-size="10" fill="#8B949E" font-style="italic">Live WCAG contrast checking on every cell</text>
  </g>

  <!-- ============================================================ -->
  <!-- CARD 3: TIME-TRAVEL (bottom-left) -->
  <!-- ============================================================ -->
  <g transform="translate(30, 287)" filter="url(#cardShadowCyan)">
    <rect width="412" height="195" rx="8" fill="#161B22" stroke="#30363D" stroke-width="1"/>
    <!-- Title -->
    <text x="18" y="28" font-family="'SF Mono','JetBrains Mono',monospace" font-size="11" font-weight="700" fill="#44AACC" letter-spacing="1.5">TIME-TRAVEL</text>
    <!-- PAUSED badge -->
    <rect x="120" y="16" width="52" height="16" rx="4" fill="#44AACC" opacity="0.12"/>
    <text x="130" y="27" font-family="'SF Mono','JetBrains Mono',monospace" font-size="9" font-weight="600" fill="#44AACC">PAUSED</text>

    <!-- Timeline visualization -->
    <g transform="translate(18, 52)">
      <!-- Track background -->
      <rect x="0" y="14" width="376" height="8" rx="4" fill="#1C2128"/>
      <!-- Filled portion (frame 87/120 = ~72.5%) -->
      <rect x="0" y="14" width="273" height="8" rx="4" fill="url(#cyanFill)"/>
      <!-- Active fill line -->
      <rect x="0" y="14" width="273" height="8" rx="4" fill="#44AACC" opacity="0.2"/>

      <!-- Frame tick marks -->
      <line x1="0"   y1="10" x2="0"   y2="13" stroke="#30363D" stroke-width="1"/>
      <line x1="31"  y1="11" x2="31"  y2="13" stroke="#30363D" stroke-width="0.5"/>
      <line x1="63"  y1="10" x2="63"  y2="13" stroke="#30363D" stroke-width="1"/>
      <line x1="94"  y1="11" x2="94"  y2="13" stroke="#30363D" stroke-width="0.5"/>
      <line x1="125" y1="10" x2="125" y2="13" stroke="#30363D" stroke-width="1"/>
      <line x1="157" y1="11" x2="157" y2="13" stroke="#30363D" stroke-width="0.5"/>
      <line x1="188" y1="10" x2="188" y2="13" stroke="#30363D" stroke-width="1"/>
      <line x1="219" y1="11" x2="219" y2="13" stroke="#30363D" stroke-width="0.5"/>
      <line x1="251" y1="10" x2="251" y2="13" stroke="#30363D" stroke-width="1"/>
      <line x1="282" y1="11" x2="282" y2="13" stroke="#30363D" stroke-width="0.5"/>
      <line x1="313" y1="10" x2="313" y2="13" stroke="#30363D" stroke-width="1"/>
      <line x1="345" y1="11" x2="345" y2="13" stroke="#30363D" stroke-width="0.5"/>
      <line x1="376" y1="10" x2="376" y2="13" stroke="#30363D" stroke-width="1"/>

      <!-- Scrubber dot -->
      <circle cx="273" cy="18" r="6" fill="#44AACC" filter="url(#glowCyan)"/>
      <circle cx="273" cy="18" r="3" fill="#FFFFFF"/>

      <!-- Frame label -->
      <text x="273" y="40" text-anchor="middle" font-family="'SF Mono','JetBrains Mono',monospace" font-size="10" font-weight="600" fill="#44AACC">Frame 87 / 120</text>

      <!-- Frame numbers at ends -->
      <text x="0" y="40" font-family="'SF Mono','JetBrains Mono',monospace" font-size="8" fill="#484F58">0</text>
      <text x="376" y="40" text-anchor="end" font-family="'SF Mono','JetBrains Mono',monospace" font-size="8" fill="#484F58">120</text>
    </g>

    <!-- Transport controls -->
    <g transform="translate(145, 118)">
      <!-- Rewind -->
      <polygon points="10,10 0,16 10,22" fill="#44AACC" opacity="0.4"/>
      <polygon points="20,10 10,16 20,22" fill="#44AACC" opacity="0.4"/>
      <!-- Step back -->
      <polygon points="48,10 38,16 48,22" fill="#44AACC" opacity="0.5"/>
      <!-- Pause (active) -->
      <rect x="68" y="9" width="4" height="14" rx="1" fill="#44AACC"/>
      <rect x="76" y="9" width="4" height="14" rx="1" fill="#44AACC"/>
      <!-- Step forward -->
      <polygon points="100,10 110,16 100,22" fill="#44AACC" opacity="0.5"/>
      <!-- Fast forward -->
      <polygon points="128,10 138,16 128,22" fill="#44AACC" opacity="0.4"/>
      <polygon points="138,10 148,16 138,22" fill="#44AACC" opacity="0.4"/>
    </g>

    <!-- Stats -->
    <g transform="translate(18, 155)">
      <text x="0" y="9" font-family="'SF Mono','JetBrains Mono',monospace" font-size="8" fill="#44AACC" opacity="0.6">120 frames captured</text>
      <text x="120" y="9" font-family="'SF Mono','JetBrains Mono',monospace" font-size="8" fill="#8B949E" opacity="0.6">2.4 MB buffer</text>
      <text x="210" y="9" font-family="'SF Mono','JetBrains Mono',monospace" font-size="8" fill="#8B949E" opacity="0.6">16ms/frame</text>
    </g>

    <!-- One-liner -->
    <text x="18" y="182" font-family="'SF Pro Text','Inter',sans-serif" font-size="10" fill="#8B949E" font-style="italic">Freeze. Scrub 120 frames. See what changed.</text>
  </g>

  <!-- ============================================================ -->
  <!-- CARD 4: INSPECTOR (bottom-right) -->
  <!-- ============================================================ -->
  <g transform="translate(458, 287)" filter="url(#cardShadowBlue)">
    <rect width="412" height="195" rx="8" fill="#161B22" stroke="#30363D" stroke-width="1"/>
    <!-- Title -->
    <text x="18" y="28" font-family="'SF Mono','JetBrains Mono',monospace" font-size="11" font-weight="700" fill="#6E96DD" letter-spacing="1.5">INSPECTOR</text>

    <!-- Component tree -->
    <g transform="translate(18, 44)">
      <!-- Row 1 -->
      <text x="0" y="11" font-family="'SF Mono','JetBrains Mono',monospace" font-size="10" fill="#484F58">&#9662;</text>
      <text x="12" y="11" font-family="'SF Mono','JetBrains Mono',monospace" font-size="10" fill="#6E96DD">&lt;App&gt;</text>
      <text x="280" y="11" text-anchor="end" font-family="'SF Mono','JetBrains Mono',monospace" font-size="9" fill="#484F58">80x24</text>

      <!-- Row 2 -->
      <text x="16" y="29" font-family="'SF Mono','JetBrains Mono',monospace" font-size="10" fill="#484F58">&#9662;</text>
      <text x="28" y="29" font-family="'SF Mono','JetBrains Mono',monospace" font-size="10" fill="#6E96DD">&lt;Header&gt;</text>
      <text x="280" y="29" text-anchor="end" font-family="'SF Mono','JetBrains Mono',monospace" font-size="9" fill="#484F58">80x3</text>

      <!-- Row 3: Highlighted -->
      <rect x="-4" y="34" width="290" height="18" rx="3" fill="#6E96DD" opacity="0.1"/>
      <rect x="-4" y="34" width="2" height="18" rx="1" fill="#6E96DD" opacity="0.5"/>
      <text x="32" y="47" font-family="'SF Mono','JetBrains Mono',monospace" font-size="10" fill="#484F58">&#9656;</text>
      <text x="44" y="47" font-family="'SF Mono','JetBrains Mono',monospace" font-size="10" fill="#6E96DD">&lt;Spinner&gt;</text>
      <text x="280" y="47" text-anchor="end" font-family="'SF Mono','JetBrains Mono',monospace" font-size="9" fill="#6E96DD">2x1</text>
      <!-- Arrow indicator -->
      <text x="295" y="47" font-family="'SF Mono','JetBrains Mono',monospace" font-size="10" fill="#6E96DD" opacity="0.5">&#8592;</text>

      <!-- Row 4 -->
      <text x="16" y="65" font-family="'SF Mono','JetBrains Mono',monospace" font-size="10" fill="#484F58">&#9662;</text>
      <text x="28" y="65" font-family="'SF Mono','JetBrains Mono',monospace" font-size="10" fill="#6E96DD">&lt;ScrollView&gt;</text>
      <text x="280" y="65" text-anchor="end" font-family="'SF Mono','JetBrains Mono',monospace" font-size="9" fill="#484F58">80x20</text>

      <!-- Row 5 -->
      <text x="32" y="83" font-family="'SF Mono','JetBrains Mono',monospace" font-size="10" fill="#484F58">&#9656;</text>
      <text x="44" y="83" font-family="'SF Mono','JetBrains Mono',monospace" font-size="10" fill="#C9D1D9">&lt;ListItem/&gt;</text>
      <text x="280" y="83" text-anchor="end" font-family="'SF Mono','JetBrains Mono',monospace" font-size="9" fill="#484F58">80x2</text>

      <!-- Row 6 -->
      <text x="32" y="101" font-family="'SF Mono','JetBrains Mono',monospace" font-size="10" fill="#484F58">&#9656;</text>
      <text x="44" y="101" font-family="'SF Mono','JetBrains Mono',monospace" font-size="10" fill="#C9D1D9">&lt;ListItem/&gt;</text>
      <text x="280" y="101" text-anchor="end" font-family="'SF Mono','JetBrains Mono',monospace" font-size="9" fill="#484F58">80x2</text>
    </g>

    <!-- Stats row -->
    <g transform="translate(18, 155)">
      <circle cx="4" cy="5" r="3" fill="#44A466"/>
      <text x="12" y="8" font-family="'SF Mono','JetBrains Mono',monospace" font-size="8" fill="#44A466">60fps</text>
      <text x="48" y="8" font-family="'SF Mono','JetBrains Mono',monospace" font-size="8" fill="#8B949E" opacity="0.6">12 nodes</text>
      <text x="108" y="8" font-family="'SF Mono','JetBrains Mono',monospace" font-size="8" fill="#CC7722" opacity="0.6">2 dirty</text>
      <text x="155" y="8" font-family="'SF Mono','JetBrains Mono',monospace" font-size="8" fill="#8B949E" opacity="0.6">34 events</text>
    </g>

    <!-- One-liner -->
    <text x="18" y="182" font-family="'SF Pro Text','Inter',sans-serif" font-size="10" fill="#8B949E" font-style="italic">Component tree. Styles. Performance. Events.</text>
  </g>

  <!-- ============================================================ -->
  <!-- BOTTOM CTA -->
  <!-- ============================================================ -->
  <g transform="translate(450, 500)">
    <text x="0" y="0" text-anchor="middle" font-family="'SF Mono','JetBrains Mono',monospace" font-size="13" fill="#6E96DD" filter="url(#glowBlue)">enableDevTools(app)</text>
    <text x="0" y="16" text-anchor="middle" font-family="'SF Pro Text','Inter',sans-serif" font-size="10" fill="#8B949E">one line  &#183;  four tools  &#183;  non-blocking</text>
  </g>
</svg>