<svg xmlns="http://www.w3.org/2000/svg" viewBox="0 0 900 520" width="900" height="520">
  <defs>
    <pattern id="grid" width="40" height="40" patternUnits="userSpaceOnUse">
      <circle cx="20" cy="20" r="0.5" fill="#8B949E" opacity="0.15"/>
    </pattern>
  </defs>

  <!-- Background -->
  <rect width="900" height="520" fill="#0D1117"/>
  <rect width="900" height="520" fill="url(#grid)"/>

  <!-- Title -->
  <text x="50" y="50" fill="#82AAFF" font-family="monospace" font-size="10" opacity="0.5" letter-spacing="1">FIVE-STAGE PIPELINE</text>
  <text x="50" y="90" fill="#E6EDF3" font-family="'Helvetica Neue', Arial, sans-serif" font-size="28" font-weight="bold">Rendering Pipeline</text>
  <text x="50" y="120" fill="#8B949E" font-family="'Helvetica Neue', Arial, sans-serif" font-size="14">Every frame flows through five stages. Unchanged cells produce zero output.</text>
  <text x="50" y="142" fill="#8B949E" font-family="'Helvetica Neue', Arial, sans-serif" font-size="14">Animation frames skip React and Layout entirely — buffer to terminal in 0.5ms.</text>

  <!-- Stage 1 -->
  <rect x="50" y="185" width="140" height="90" rx="6" fill="#161B22" stroke="#30363D" stroke-width="1"/>
  <text x="120" y="220" fill="#82AAFF" font-family="monospace" font-size="11" text-anchor="middle" font-weight="bold">REACT</text>
  <text x="120" y="240" fill="#8B949E" font-family="monospace" font-size="9" text-anchor="middle">reconciler</text>
  <text x="120" y="255" fill="#8B949E" font-family="monospace" font-size="9" text-anchor="middle">commitUpdate</text>

  <!-- Arrow -->
  <line x1="195" y1="230" x2="220" y2="230" stroke="#30363D" stroke-width="1"/>
  <polygon points="218,226 226,230 218,234" fill="#30363D"/>

  <!-- Stage 2 -->
  <rect x="230" y="185" width="140" height="90" rx="6" fill="#161B22" stroke="#30363D" stroke-width="1"/>
  <text x="300" y="220" fill="#82AAFF" font-family="monospace" font-size="11" text-anchor="middle" font-weight="bold">LAYOUT</text>
  <text x="300" y="240" fill="#8B949E" font-family="monospace" font-size="9" text-anchor="middle">flexbox · grid</text>
  <text x="300" y="255" fill="#8B949E" font-family="monospace" font-size="9" text-anchor="middle">cached</text>

  <!-- Arrow -->
  <line x1="375" y1="230" x2="400" y2="230" stroke="#30363D" stroke-width="1"/>
  <polygon points="398,226 406,230 398,234" fill="#30363D"/>

  <!-- Stage 3 -->
  <rect x="410" y="185" width="140" height="90" rx="6" fill="#161B22" stroke="#30363D" stroke-width="1"/>
  <text x="480" y="220" fill="#82AAFF" font-family="monospace" font-size="11" text-anchor="middle" font-weight="bold">BUFFER</text>
  <text x="480" y="240" fill="#8B949E" font-family="monospace" font-size="9" text-anchor="middle">Int32Array</text>
  <text x="480" y="255" fill="#8B949E" font-family="monospace" font-size="9" text-anchor="middle">Uint8Array</text>

  <!-- Arrow -->
  <line x1="555" y1="230" x2="580" y2="230" stroke="#30363D" stroke-width="1"/>
  <polygon points="578,226 586,230 578,234" fill="#30363D"/>

  <!-- Stage 4 -->
  <rect x="590" y="185" width="140" height="90" rx="6" fill="#161B22" stroke="#30363D" stroke-width="1"/>
  <text x="660" y="220" fill="#82AAFF" font-family="monospace" font-size="11" text-anchor="middle" font-weight="bold">DIFF</text>
  <text x="660" y="240" fill="#8B949E" font-family="monospace" font-size="9" text-anchor="middle">cell-level</text>
  <text x="660" y="255" fill="#8B949E" font-family="monospace" font-size="9" text-anchor="middle">97% skipped</text>

  <!-- Arrow -->
  <line x1="735" y1="230" x2="760" y2="230" stroke="#30363D" stroke-width="1"/>
  <polygon points="758,226 766,230 758,234" fill="#30363D"/>

  <!-- Stage 5 -->
  <rect x="770" y="185" width="90" height="90" rx="6" fill="#161B22" stroke="#30363D" stroke-width="1" stroke-dasharray="4,3"/>
  <text x="815" y="225" fill="#82AAFF" font-family="monospace" font-size="11" text-anchor="middle" font-weight="bold">TTY</text>
  <text x="815" y="245" fill="#8B949E" font-family="monospace" font-size="9" text-anchor="middle">stdout</text>
  <text x="815" y="260" fill="#8B949E" font-family="monospace" font-size="9" text-anchor="middle">atomic</text>

  <!-- Fast path bypass -->
  <path d="M 480 280 C 480 350, 660 350, 660 280" fill="none" stroke="#82AAFF" stroke-width="1" stroke-dasharray="6,4" opacity="0.5"/>
  <text x="570" y="355" fill="#82AAFF" font-family="monospace" font-size="10" text-anchor="middle" opacity="0.7">FAST PATH</text>
  <text x="570" y="372" fill="#8B949E" font-family="monospace" font-size="9" text-anchor="middle">requestRender() — skip stages 01 + 02</text>

  <!-- Bottom stats -->
  <g transform="translate(50, 420)">
    <text x="0" y="0" fill="#E6EDF3" font-family="'Helvetica Neue', Arial, sans-serif" font-size="12" font-weight="bold">STRUCTURAL CHANGE</text>
    <text x="0" y="18" fill="#8B949E" font-family="'Helvetica Neue', Arial, sans-serif" font-size="11">Full pipeline. ~5ms per frame.</text>
  </g>

  <g transform="translate(320, 420)">
    <text x="0" y="0" fill="#E6EDF3" font-family="'Helvetica Neue', Arial, sans-serif" font-size="12" font-weight="bold">ANIMATION / SCROLL</text>
    <text x="0" y="18" fill="#8B949E" font-family="'Helvetica Neue', Arial, sans-serif" font-size="11">Fast path. ~0.5ms per frame.</text>
  </g>

  <g transform="translate(590, 420)">
    <text x="0" y="0" fill="#E6EDF3" font-family="'Helvetica Neue', Arial, sans-serif" font-size="12" font-weight="bold">WASM ACCELERATION</text>
    <text x="0" y="18" fill="#8B949E" font-family="'Helvetica Neue', Arial, sans-serif" font-size="11">Optional. 3.4× faster diff. TypeScript fallback.</text>
  </g>

  <!-- Bottom line -->
  <line x1="50" y1="470" x2="860" y2="470" stroke="#30363D" stroke-width="0.5"/>
  <text x="455" y="495" fill="#8B949E" font-family="monospace" font-size="9" text-anchor="middle">zero native dependencies · pure TypeScript · 30,000 cells at 60fps · near-zero GC pressure</text>
</svg>
